<?xml version="1.0" encoding="UTF-8" standalone="no"?>
<!-- Created with Inkscape (http://www.inkscape.org/) -->

<svg
   xmlns:dc="http://purl.org/dc/elements/1.1/"
   xmlns:cc="http://creativecommons.org/ns#"
   xmlns:rdf="http://www.w3.org/1999/02/22-rdf-syntax-ns#"
   xmlns:svg="http://www.w3.org/2000/svg"
   xmlns="http://www.w3.org/2000/svg"
   xmlns:sodipodi="http://sodipodi.sourceforge.net/DTD/sodipodi-0.dtd"
   xmlns:inkscape="http://www.inkscape.org/namespaces/inkscape"
   width="210mm"
   height="297mm"
   viewBox="0 0 744.09448819 1052.3622047"
   id="svg4135"
   version="1.1"
   inkscape:version="0.91 r13725"
   sodipodi:docname="levels.svg">
  <defs
     id="defs4137" />
  <sodipodi:namedview
     id="base"
     pagecolor="#ffffff"
     bordercolor="#666666"
     borderopacity="1.0"
     inkscape:pageopacity="0.0"
     inkscape:pageshadow="2"
     inkscape:zoom="3.959798"
     inkscape:cx="-5.1072348"
     inkscape:cy="1026.8"
     inkscape:document-units="px"
     inkscape:current-layer="g4735"
     showgrid="false"
     inkscape:window-width="1536"
     inkscape:window-height="801"
     inkscape:window-x="-8"
     inkscape:window-y="-8"
     inkscape:window-maximized="1" />
  <metadata
     id="metadata4140">
    <rdf:RDF>
      <cc:Work
         rdf:about="">
        <dc:format>image/svg+xml</dc:format>
        <dc:type
           rdf:resource="http://purl.org/dc/dcmitype/StillImage" />
        <dc:title></dc:title>
      </cc:Work>
    </rdf:RDF>
  </metadata>
  <g
     inkscape:label="Capa 1"
     inkscape:groupmode="layer"
     id="layer1">
    <g
       id="g4729"
       transform="matrix(0.29178673,0,0,0.29178673,-22.195796,-26.906766)">
      <path
         inkscape:connector-curvature="0"
         id="rect4694"
         d="m -62.499995,85.219341 c 16.81785,0 30.35714,13.53929 30.35714,30.357139 l 0,211.42857 c 0,16.81786 -13.53929,30.35714 -30.35714,30.35714 -16.81786,0 -30.35715,-13.53928 -30.35715,-30.35714 l 0,-211.42857 c 0,-16.817849 13.53929,-30.357139 30.35715,-30.357139 z"
         style="opacity:0.98200001;fill:#4d4d4d;fill-opacity:1;stroke:#4d4d4d;stroke-width:2.02999997;stroke-linecap:round;stroke-miterlimit:4;stroke-dasharray:none;stroke-opacity:1" />
      <circle
         r="18.928572"
         cy="117.00507"
         cx="-61.785717"
         id="path4697"
         style="opacity:0.98200001;fill:#ffffff;fill-opacity:1;stroke:#ffffff;stroke-width:2.02999997;stroke-linecap:round;stroke-miterlimit:4;stroke-dasharray:none;stroke-opacity:1" />
      <g
         transform="matrix(0,-1,1,0,0,0)"
         style="font-style:normal;font-variant:normal;font-weight:bold;font-stretch:normal;font-size:60px;line-height:125%;font-family:'Tw Cen MT Condensed';-inkscape-font-specification:'Tw Cen MT Condensed, Bold';letter-spacing:0px;word-spacing:0px;fill:#ffffff;fill-opacity:1;stroke:none;stroke-width:1px;stroke-linecap:butt;stroke-linejoin:miter;stroke-opacity:1"
         id="text4701">
        <path
           d="m -277.27432,-44.753071 q -3.01758,1.31836 -6.70899,1.31836 -6.62109,0 -11.07422,-4.833985 -4.42382,-4.833984 -4.42382,-14.091797 0,-9.550781 4.39453,-14.355468 4.39453,-4.833985 10.2539,-4.833985 3.51563,0 7.5,1.816406 l 0,7.675782 q -3.10547,-1.582032 -4.04297,-1.78711 -0.9082,-0.205078 -1.96289,-0.205078 -3.10546,0 -5.44921,2.578125 -2.34375,2.578125 -2.34375,8.876953 0,6.591797 2.25585,9.140625 2.28516,2.519532 5.6543,2.519532 2.75391,0 5.94727,-2.167969 l 0,8.349609 z"
           id="path4742"
           inkscape:connector-curvature="0" />
        <path
           d="m -255.03799,-44.167133 -17.10938,0 0,-36.591797 7.85156,0 0,29.384765 9.25782,0 0,7.207032 z"
           id="path4744"
           inkscape:connector-curvature="0" />
        <path
           d="m -252.1376,-62.653461 q 0,-7.705079 1.66992,-11.308594 1.66992,-3.603516 4.42383,-5.595703 2.7832,-1.992188 7.00195,-1.992188 3.48633,0 5.625,1.171875 2.13867,1.142578 3.95508,3.369141 1.8457,2.197265 2.69531,5.478515 0.84961,3.251954 0.84961,8.642579 0,11.044921 -3.69141,15.263671 -3.66211,4.189454 -9.49218,4.189454 -5.94727,0 -9.49219,-4.335938 -3.54492,-4.365234 -3.54492,-14.882812 z m 8.34961,-2.226563 0,2.34375 q 0,5.771484 0.38085,7.617188 0.38086,1.816406 1.61133,2.871093 1.25977,1.054688 2.98828,1.054688 1.40625,0 2.57813,-1.025391 1.17187,-1.02539 1.64062,-3.105469 0.46875,-2.109375 0.46875,-7.470703 0,-4.804687 -0.41015,-6.826172 -0.38086,-2.050781 -1.58203,-3.310546 -1.20118,-1.259766 -2.92969,-1.259766 -2.51953,0 -3.63281,2.197266 -1.11328,2.167968 -1.11328,6.914062 z"
           id="path4746"
           inkscape:connector-curvature="0" />
        <path
           d="m -203.85635,-70.44643 q -3.13477,-3.66211 -6.00586,-3.66211 -1.28907,0 -2.31446,0.84961 -0.99609,0.849609 -0.99609,1.904297 0,1.904297 3.19336,4.511718 3.33984,2.666016 4.74609,4.21875 1.40625,1.523438 2.25586,3.603516 0.84961,2.080078 0.84961,4.541016 0,4.833984 -3.10547,7.939453 -3.07617,3.105469 -7.93945,3.105469 -3.98438,0 -7.79297,-2.841797 l 0,-8.642578 q 3.66211,3.984375 7.32422,3.984375 1.64062,0 2.72461,-0.908204 1.11328,-0.908203 1.11328,-2.226562 0,-1.962891 -2.8125,-4.365234 -4.48242,-3.867188 -5.88867,-5.742188 -1.37695,-1.904297 -2.08008,-3.808594 -0.67383,-1.933593 -0.67383,-3.896484 0,-4.21875 2.95899,-6.972656 2.95898,-2.753907 7.52929,-2.753907 3.45703,0 6.91407,1.992188 l 0,9.169922 z"
           id="path4748"
           inkscape:connector-curvature="0" />
        <path
           d="m -178.60245,-44.167133 -18.25195,0 0,-36.591797 17.10937,0 0,7.060547 -9.25781,0 0,7.441406 7.93945,0 0,6.796875 -7.93945,0 0,8.085937 10.40039,0 0,7.207032 z"
           id="path4750"
           inkscape:connector-curvature="0" />
      </g>
    </g>
    <g
       id="g4735"
       transform="matrix(0.29178673,0,0,0.29178673,-7.2539161,-24.094169)">
      <path
         inkscape:connector-curvature="0"
         id="rect4694-5"
         d="m 57.142862,84.14792 c 16.81785,0 30.35714,13.53929 30.35714,30.35714 l 0,211.42857 c 0,16.81786 -13.53929,30.35714 -30.35714,30.35714 -16.81786,0 -30.35715,-13.53928 -30.35715,-30.35714 l 0,-211.42857 c 0,-16.81785 13.53929,-30.35714 30.35715,-30.35714 z"
         style="opacity:0.98200001;fill:#4d4d4d;fill-opacity:1;stroke:#4d4d4d;stroke-width:2.02999997;stroke-linecap:round;stroke-miterlimit:4;stroke-dasharray:none;stroke-opacity:1" />
      <circle
         r="18.928572"
         cy="115.93365"
         cx="57.857143"
         id="path4697-2"
         style="opacity:0.98200001;fill:#ffffff;fill-opacity:1;stroke:#ffffff;stroke-width:2.02999997;stroke-linecap:round;stroke-miterlimit:4;stroke-dasharray:none;stroke-opacity:1" />
      <g
         transform="matrix(0,-1,1,0,0,0)"
         style="font-style:normal;font-variant:normal;font-weight:bold;font-stretch:normal;font-size:60px;line-height:125%;font-family:'Tw Cen MT Condensed';-inkscape-font-specification:'Tw Cen MT Condensed, Bold';letter-spacing:0px;word-spacing:0px;fill:#ffffff;fill-opacity:1;stroke:none;stroke-width:1px;stroke-linecap:butt;stroke-linejoin:miter;stroke-opacity:1"
         id="text4701-8">
        <path
           d="m -280.21658,75.475723 -17.10938,0 0,-36.591797 7.85156,0 0,29.384766 9.25782,0 0,7.207031 z"
           style=""
           id="path4753" />
        <path
           d="m -257.21854,75.475723 -18.25195,0 0,-36.591797 17.10938,0 0,7.060547 -9.25782,0 0,7.441407 7.93946,0 0,6.796875 -7.93946,0 0,8.085937 10.40039,0 0,7.207031 z"
           style=""
           id="path4755" />
        <path
           d="m -233.54666,38.883926 7.96875,0 -10.3125,36.591797 -7.5586,0 -10.45898,-36.591797 8.34961,0 5.88867,23.525391 6.12305,-23.525391 z"
           style=""
           id="path4757" />
        <path
           d="m -202.84354,75.475723 -18.25195,0 0,-36.591797 17.10938,0 0,7.060547 -9.25782,0 0,7.441407 7.93946,0 0,6.796875 -7.93946,0 0,8.085937 10.40039,0 0,7.207031 z"
           style=""
           id="path4759" />
        <path
           d="m -180.13846,75.475723 -17.10937,0 0,-36.591797 7.85156,0 0,29.384766 9.25781,0 0,7.207031 z"
           style=""
           id="path4761" />
        <path
           d="m -159.30838,49.196426 q -3.13477,-3.662109 -6.00586,-3.662109 -1.28906,0 -2.31445,0.849609 -0.9961,0.84961 -0.9961,1.904297 0,1.904297 3.19336,4.511719 3.33985,2.666016 4.7461,4.21875 1.40625,1.523438 2.25586,3.603516 0.84961,2.080078 0.84961,4.541015 0,4.833985 -3.10547,7.939453 -3.07618,3.105469 -7.93946,3.105469 -3.98437,0 -7.79297,-2.841797 l 0,-8.642578 q 3.66211,3.984375 7.32422,3.984375 1.64063,0 2.72461,-0.908203 1.11328,-0.908203 1.11328,-2.226562 0,-1.962891 -2.8125,-4.365235 -4.48242,-3.867187 -5.88867,-5.742187 -1.37695,-1.904297 -2.08008,-3.808594 -0.67382,-1.933594 -0.67382,-3.896484 0,-4.21875 2.95898,-6.972657 2.95898,-2.753906 7.5293,-2.753906 3.45703,0 6.91406,1.992188 l 0,9.169921 z"
           style=""
           id="path4763" />
      </g>
    </g>
  </g>
</svg>
