<?xml version="1.0" encoding="UTF-8" standalone="no"?>
<!-- Created with Inkscape (http://www.inkscape.org/) -->

<svg
   xmlns:dc="http://purl.org/dc/elements/1.1/"
   xmlns:cc="http://creativecommons.org/ns#"
   xmlns:rdf="http://www.w3.org/1999/02/22-rdf-syntax-ns#"
   xmlns:svg="http://www.w3.org/2000/svg"
   xmlns="http://www.w3.org/2000/svg"
   xmlns:sodipodi="http://sodipodi.sourceforge.net/DTD/sodipodi-0.dtd"
   xmlns:inkscape="http://www.inkscape.org/namespaces/inkscape"
   width="44.662266"
   height="44.666824"
   id="svg3136"
   version="1.1"
   inkscape:version="0.91 r13725"
   sodipodi:docname="target2.svg">
  <defs
     id="defs3" />
  <sodipodi:namedview
     inkscape:document-units="mm"
     id="base"
     pagecolor="#ffffff"
     bordercolor="#666666"
     borderopacity="1.0"
     inkscape:pageopacity="0.0"
     inkscape:pageshadow="2"
     inkscape:zoom="11.2"
     inkscape:cx="25.405115"
     inkscape:cy="23.94761"
     inkscape:current-layer="layer1"
     showgrid="false"
     inkscape:window-width="1536"
     inkscape:window-height="801"
     inkscape:window-x="-8"
     inkscape:window-y="-8"
     inkscape:window-maximized="1"
     units="mm"
     fit-margin-top="0"
     fit-margin-left="0"
     fit-margin-right="0"
     fit-margin-bottom="0" />
  <metadata
     id="metadata4">
    <rdf:RDF>
      <cc:Work
         rdf:about="">
        <dc:format>image/svg+xml</dc:format>
        <dc:type
           rdf:resource="http://purl.org/dc/dcmitype/StillImage" />
        <dc:title />
      </cc:Work>
    </rdf:RDF>
  </metadata>
  <g
     inkscape:label="Layer 1"
     inkscape:groupmode="layer"
     id="layer1"
     transform="translate(22.384346,-1030.0313)">
    <circle
       style="fill:#ff0000"
       id="circle12"
       r="1.7337611"
       cy="1052.4116"
       cx="0.080715574" />
    <path
       style="fill:#ff0000"
       id="path30"
       d="m 0.01970498,1047.3675 c 0.597016,0 1.08009762,-0.4831 1.08465502,-1.0801 l 0.050131,-15.1669 c 0,-0.597 -0.48308163,-1.0847 -1.08009763,-1.0892 0,0 0,0 -0.0045574,0 -0.59245862,0 -1.0800976,0.4876 -1.0800976,1.0846 l -0.050131,15.1624 c -0.00456,0.6016 0.47852432,1.0892 1.08009768,1.0892 0,0 0,0 0,0 z"
       inkscape:connector-curvature="0" />
    <path
       style="fill:#ff0000"
       id="path36"
       d="m 21.197822,1051.4099 -14.4423182,-0.05 c 0,0 0,0 -0.00456,0 -0.597016,0 -1.0800977,0.4831 -1.084655,1.0801 0,0.597 0.4830816,1.0846 1.0800976,1.0892 l 14.442318,0.05 c 0,0 0,0 0.0046,0 0.597016,0 1.080097,-0.4831 1.084655,-1.0801 0,-0.6015 -0.483082,-1.0892 -1.080098,-1.0892 z"
       inkscape:connector-curvature="0" />
    <path
       style="fill:#ff0000"
       id="path38"
       d="m -0.18081947,1074.6981 c 0,0 0,0 0,0 0.60157337,0 1.08465501,-0.4831 1.08921238,-1.0801 l 0.0501311,-15.1624 c 0,-0.597 -0.48308165,-1.0846 -1.08009764,-1.0892 0,0 0,0 -0.004557,0 -0.597016,0 -1.08009762,0.4831 -1.08465502,1.0801 l -0.050131,15.1624 c -0.00456,0.6016 0.47852426,1.0892 1.08009763,1.0892 z"
       inkscape:connector-curvature="0" />
    <path
       style="fill:#ff0000"
       id="path68"
       d="m -6.8619298,1053.3741 c 0,0 0,0 0,0 0.6015734,0 1.0846551,-0.483 1.0892124,-1.08 0,-0.5971 -0.4830816,-1.0847 -1.0800976,-1.0893 l -14.442318,-0.05 c 0,0 0,0 -0.0046,0 -0.597016,0 -1.080097,0.4831 -1.084655,1.0801 0,0.597 0.483082,1.0847 1.080098,1.0892 l 14.4423182,0.05 z"
       inkscape:connector-curvature="0" />
  </g>
</svg>
