<?xml version="1.0" encoding="UTF-8" standalone="no"?>
<!-- Created with Inkscape (http://www.inkscape.org/) -->

<svg
   xmlns:dc="http://purl.org/dc/elements/1.1/"
   xmlns:cc="http://creativecommons.org/ns#"
   xmlns:rdf="http://www.w3.org/1999/02/22-rdf-syntax-ns#"
   xmlns:svg="http://www.w3.org/2000/svg"
   xmlns="http://www.w3.org/2000/svg"
   xmlns:sodipodi="http://sodipodi.sourceforge.net/DTD/sodipodi-0.dtd"
   xmlns:inkscape="http://www.inkscape.org/namespaces/inkscape"
   width="44.662266"
   height="44.666824"
   id="svg3136"
   version="1.1"
   inkscape:version="0.48.4 r9939"
   sodipodi:docname="target.svg">
  <defs
     id="defs3" />
  <sodipodi:namedview
     inkscape:document-units="mm"
     id="base"
     pagecolor="#ffffff"
     bordercolor="#666666"
     borderopacity="1.0"
     inkscape:pageopacity="0.0"
     inkscape:pageshadow="2"
     inkscape:zoom="11.2"
     inkscape:cx="41.878329"
     inkscape:cy="23.94761"
     inkscape:current-layer="layer1"
     showgrid="false"
     inkscape:window-width="1366"
     inkscape:window-height="664"
     inkscape:window-x="-8"
     inkscape:window-y="-8"
     inkscape:window-maximized="1"
     units="mm"
     fit-margin-top="0"
     fit-margin-left="0"
     fit-margin-right="0"
     fit-margin-bottom="0" />
  <metadata
     id="metadata4">
    <rdf:RDF>
      <cc:Work
         rdf:about="">
        <dc:format>image/svg+xml</dc:format>
        <dc:type
           rdf:resource="http://purl.org/dc/dcmitype/StillImage" />
        <dc:title></dc:title>
      </cc:Work>
    </rdf:RDF>
  </metadata>
  <g
     inkscape:label="Layer 1"
     inkscape:groupmode="layer"
     id="layer1"
     transform="translate(22.384346,-1030.0313)">
    <g
       transform="matrix(0.04557374,0,0,0.04557374,-22.840083,1029.5801)"
       id="g6"
       style="fill:#ff0000">
      <g
         id="g8"
         style="fill:#ff0000">
        <g
           id="g10"
           style="fill:#ff0000">
          <circle
             d="m 544.9,500 c 0,24.79759 -20.10241,44.9 -44.9,44.9 -24.79759,0 -44.9,-20.10241 -44.9,-44.9 0,-24.79759 20.10241,-44.9 44.9,-44.9 24.79759,0 44.9,20.10241 44.9,44.9 z"
             sodipodi:ry="44.900002"
             sodipodi:rx="44.900002"
             sodipodi:cy="500"
             sodipodi:cx="500"
             cx="500"
             cy="500"
             r="44.900002"
             id="circle12"
             style="fill:#ff0000" />
          <path
             inkscape:connector-curvature="0"
             d="m 597.3,138 -27.1,84.8 c -2.7,8.3 1.9,17.3 10.3,19.9 1.6,0.5 3.2,0.8 4.8,0.8 6.7,0 13,-4.3 15.1,-11 l 27.1,-84.8 c 2.7,-8.3 -1.9,-17.3 -10.3,-19.9 -8.2,-2.7 -17.2,1.9 -19.9,10.2 z"
             id="path14"
             style="fill:#ff0000" />
          <path
             inkscape:connector-curvature="0"
             d="m 365.2,264.2 c 2.6,0 5.1,-0.6 7.5,-1.9 7.7,-4.2 10.6,-13.8 6.4,-21.5 l -42.4,-78.2 c -4.2,-7.7 -13.8,-10.5 -21.5,-6.4 -7.7,4.2 -10.6,13.8 -6.4,21.5 l 42.4,78.2 c 2.9,5.3 8.4,8.3 14,8.3 z"
             id="path16"
             style="fill:#ff0000" />
          <path
             inkscape:connector-curvature="0"
             d="m 751.7,381 c 2.6,0 5.1,-0.6 7.5,-1.9 l 78.2,-42.4 c 7.7,-4.2 10.6,-13.8 6.4,-21.5 -4.2,-7.7 -13.8,-10.6 -21.5,-6.4 l -78.2,42.4 c -7.7,4.2 -10.6,13.8 -6.4,21.5 2.9,5.3 8.3,8.3 14,8.3 z"
             id="path18"
             style="fill:#ff0000" />
          <path
             inkscape:connector-curvature="0"
             d="m 862,597.4 -84.8,-27.1 c -8.3,-2.8 -17.3,1.9 -19.9,10.3 -2.7,8.3 1.9,17.3 10.3,19.9 l 84.8,27.1 c 1.6,0.5 3.2,0.8 4.8,0.8 6.7,0 13,-4.3 15.1,-11 2.6,-8.5 -2,-17.4 -10.3,-20 z"
             id="path20"
             style="fill:#ff0000" />
          <path
             inkscape:connector-curvature="0"
             d="m 382.7,872.3 c 1.6,0.5 3.2,0.8 4.8,0.8 6.7,0 13,-4.3 15.1,-11 l 27.1,-84.8 c 2.7,-8.3 -1.9,-17.3 -10.3,-19.9 -8.3,-2.8 -17.3,1.9 -19.9,10.3 l -27.1,84.8 c -2.6,8.2 2,17.1 10.3,19.8 z"
             id="path22"
             style="fill:#ff0000" />
          <path
             inkscape:connector-curvature="0"
             d="m 627.2,737.7 c -7.7,4.2 -10.6,13.8 -6.4,21.5 l 42.4,78.2 c 2.9,5.3 8.3,8.3 14,8.3 2.6,0 5.1,-0.6 7.5,-1.9 7.7,-4.2 10.6,-13.8 6.4,-21.5 l -42.4,-78.2 c -4.2,-7.7 -13.8,-10.5 -21.5,-6.4 z"
             id="path24"
             style="fill:#ff0000" />
          <path
             inkscape:connector-curvature="0"
             d="m 240.8,620.9 -78.2,42.4 c -7.7,4.2 -10.6,13.8 -6.4,21.5 2.9,5.3 8.3,8.3 14,8.3 2.6,0 5.1,-0.6 7.5,-1.9 l 78.2,-42.4 c 7.7,-4.2 10.6,-13.8 6.4,-21.5 -4.2,-7.7 -13.8,-10.6 -21.5,-6.4 z"
             id="path26"
             style="fill:#ff0000" />
          <path
             inkscape:connector-curvature="0"
             d="m 232.4,399.5 -84.7,-27.1 c -8.4,-2.7 -17.3,2 -19.9,10.3 -2.7,8.3 1.9,17.3 10.3,19.9 l 84.7,27.1 c 1.6,0.5 3.2,0.8 4.8,0.8 6.7,0 12.9,-4.3 15.1,-11 2.6,-8.4 -2,-17.3 -10.3,-20 z"
             id="path28"
             style="fill:#ff0000" />
          <path
             inkscape:connector-curvature="0"
             d="m 501.6,390.3 c 13.1,0 23.7,-10.6 23.8,-23.7 l 1.1,-332.8 c 0,-13.1 -10.6,-23.8 -23.7,-23.9 0,0 0,0 -0.1,0 C 489.7,10 479,20.6 479,33.7 l -1.1,332.7 c -0.1,13.2 10.5,23.9 23.7,23.9 0,0 0,0 0,0 z"
             id="path30"
             style="fill:#ff0000" />
          <path
             inkscape:connector-curvature="0"
             d="m 279,335.1 c 4.6,0 9.2,-2 12.3,-5.9 5.5,-6.8 4.5,-16.8 -2.3,-22.3 l -69.1,-56 c -6.8,-5.5 -16.8,-4.4 -22.3,2.3 -5.5,6.8 -4.5,16.8 2.3,22.3 l 69.1,56 c 3,2.4 6.5,3.6 10,3.6 z"
             id="path32"
             style="fill:#ff0000" />
          <path
             inkscape:connector-curvature="0"
             d="m 680.8,294.9 c 4.6,0 9.2,-2 12.3,-5.9 l 56,-69.2 c 5.5,-6.8 4.5,-16.8 -2.3,-22.3 -6.8,-5.5 -16.8,-4.4 -22.3,2.3 l -56,69.2 c -5.5,6.8 -4.5,16.8 2.3,22.3 3,2.5 6.5,3.6 10,3.6 z"
             id="path34"
             style="fill:#ff0000" />
          <path
             inkscape:connector-curvature="0"
             d="m 966.3,479 -316.9,-1.1 c 0,0 0,0 -0.1,0 -13.1,0 -23.7,10.6 -23.8,23.7 0,13.1 10.6,23.8 23.7,23.9 l 316.9,1.1 c 0,0 0,0 0.1,0 13.1,0 23.7,-10.6 23.8,-23.7 0,-13.2 -10.6,-23.9 -23.7,-23.9 z"
             id="path36"
             style="fill:#ff0000" />
          <path
             inkscape:connector-curvature="0"
             d="m 497.2,990 c 0,0 0,0 0,0 13.2,0 23.8,-10.6 23.9,-23.7 l 1.1,-332.7 c 0,-13.1 -10.6,-23.8 -23.7,-23.9 0,0 0,0 -0.1,0 -13.1,0 -23.7,10.6 -23.8,23.7 l -1.1,332.7 c -0.1,13.2 10.5,23.9 23.7,23.9 z"
             id="path38"
             style="fill:#ff0000" />
          <path
             inkscape:connector-curvature="0"
             d="m 708.6,670.8 c -5.5,6.8 -4.5,16.8 2.3,22.3 l 69.1,56 c 2.9,2.4 6.5,3.5 10,3.5 4.6,0 9.2,-2 12.3,-5.9 5.5,-6.8 4.5,-16.8 -2.3,-22.3 l -69.1,-56 c -6.8,-5.4 -16.8,-4.4 -22.3,2.4 z"
             id="path40"
             style="fill:#ff0000" />
          <path
             inkscape:connector-curvature="0"
             d="m 306.9,711 -56,69.2 c -5.5,6.8 -4.5,16.8 2.3,22.3 2.9,2.4 6.5,3.5 10,3.5 4.6,0 9.2,-2 12.3,-5.9 l 56,-69.2 c 5.5,-6.8 4.5,-16.8 -2.3,-22.3 -6.8,-5.5 -16.8,-4.4 -22.3,2.4 z"
             id="path42"
             style="fill:#ff0000" />
          <path
             inkscape:connector-curvature="0"
             d="m 635.9,264.8 c 5.6,0 11,-3 13.9,-8.2 l 42.8,-78 c 4.2,-7.7 1.4,-17.3 -6.3,-21.5 -7.7,-4.2 -17.3,-1.4 -21.5,6.3 l -42.8,78 c -4.2,7.7 -1.4,17.3 6.3,21.5 2.4,1.3 5,1.9 7.6,1.9 z"
             id="path44"
             style="fill:#ff0000" />
          <path
             inkscape:connector-curvature="0"
             d="m 430.9,222.5 -26.7,-84.9 c -2.6,-8.3 -11.5,-13 -19.9,-10.4 -8.4,2.6 -13,11.5 -10.4,19.9 l 26.7,84.9 c 2.1,6.8 8.4,11.1 15.1,11.1 1.6,0 3.2,-0.2 4.8,-0.7 8.4,-2.7 13.1,-11.6 10.4,-19.9 z"
             id="path46"
             style="fill:#ff0000" />
          <path
             inkscape:connector-curvature="0"
             d="m 772.8,431.7 c 1.6,0 3.2,-0.2 4.8,-0.7 l 84.9,-26.7 c 8.4,-2.6 13,-11.5 10.4,-19.9 -2.6,-8.3 -11.5,-13 -19.9,-10.4 l -85,26.7 c -8.4,2.6 -13,11.5 -10.4,19.9 2.2,6.7 8.4,11.1 15.2,11.1 z"
             id="path48"
             style="fill:#ff0000" />
          <path
             inkscape:connector-curvature="0"
             d="m 737.2,628.3 c -4.2,7.7 -1.4,17.3 6.3,21.5 l 78,42.8 c 2.4,1.3 5,2 7.6,2 5.6,0 11,-3 13.9,-8.2 4.2,-7.7 1.4,-17.3 -6.3,-21.5 l -78,-42.8 c -7.7,-4.3 -17.3,-1.5 -21.5,6.2 z"
             id="path50"
             style="fill:#ff0000" />
          <path
             inkscape:connector-curvature="0"
             d="m 350.2,743.4 -42.8,78 c -4.2,7.7 -1.4,17.3 6.3,21.5 2.4,1.3 5,2 7.6,2 5.6,0 11,-3 13.9,-8.2 l 42.8,-78 c 4.2,-7.7 1.4,-17.3 -6.3,-21.5 -7.7,-4.3 -17.3,-1.4 -21.5,6.2 z"
             id="path52"
             style="fill:#ff0000" />
          <path
             inkscape:connector-curvature="0"
             d="m 595.8,862.4 c 2.1,6.8 8.4,11.1 15.1,11.1 1.6,0 3.2,-0.2 4.8,-0.7 8.4,-2.6 13,-11.5 10.4,-19.9 L 599.3,768 c -2.6,-8.4 -11.5,-13 -19.9,-10.4 -8.4,2.6 -13,11.5 -10.4,19.9 l 26.8,84.9 z"
             id="path54"
             style="fill:#ff0000" />
          <path
             inkscape:connector-curvature="0"
             d="m 222.4,569.1 -84.9,26.7 c -8.4,2.6 -13,11.5 -10.4,19.9 2.1,6.8 8.4,11.1 15.1,11.1 1.6,0 3.2,-0.2 4.8,-0.7 l 84.9,-26.7 c 8.4,-2.6 13,-11.5 10.4,-19.9 -2.6,-8.4 -11.5,-13.1 -19.9,-10.4 z"
             id="path56"
             style="fill:#ff0000" />
          <path
             inkscape:connector-curvature="0"
             d="m 262.8,371.7 c 4.2,-7.7 1.4,-17.3 -6.3,-21.5 l -78,-42.8 c -7.7,-4.2 -17.3,-1.4 -21.5,6.3 -4.2,7.7 -1.4,17.3 6.3,21.5 l 78,42.8 c 2.4,1.3 5,2 7.6,2 5.6,0 11.1,-3 13.9,-8.3 z"
             id="path58"
             style="fill:#ff0000" />
          <path
             inkscape:connector-curvature="0"
             d="m 317.7,296.1 c 3.6,0 7.2,-1.2 10.2,-3.7 6.7,-5.6 7.6,-15.6 2,-22.3 l -57.2,-68.2 c -5.6,-6.7 -15.6,-7.6 -22.3,-2 -6.7,5.6 -7.6,15.6 -2,22.3 l 57.2,68.2 c 3.1,3.8 7.6,5.7 12.1,5.7 z"
             id="path60"
             style="fill:#ff0000" />
          <path
             inkscape:connector-curvature="0"
             d="m 719.7,333.6 c 3.6,0 7.2,-1.2 10.2,-3.7 l 68.2,-57.2 c 6.7,-5.6 7.6,-15.6 2,-22.3 -5.6,-6.7 -15.6,-7.6 -22.3,-2 l -68.2,57.2 c -6.7,5.6 -7.6,15.6 -2,22.3 3.1,3.8 7.6,5.7 12.1,5.7 z"
             id="path62"
             style="fill:#ff0000" />
          <path
             inkscape:connector-curvature="0"
             d="m 672.1,707.6 c -6.7,5.6 -7.6,15.6 -2,22.3 l 57.2,68.2 c 3.1,3.7 7.6,5.7 12.2,5.7 3.6,0 7.2,-1.2 10.2,-3.7 6.7,-5.6 7.6,-15.6 2,-22.3 l -57.2,-68.2 c -5.7,-6.8 -15.7,-7.6 -22.4,-2 z"
             id="path64"
             style="fill:#ff0000" />
          <path
             inkscape:connector-curvature="0"
             d="m 270.1,670.1 -68.2,57.2 c -6.7,5.6 -7.6,15.6 -2,22.3 3.1,3.7 7.6,5.7 12.2,5.7 3.6,0 7.2,-1.2 10.2,-3.7 l 68.2,-57.2 c 6.7,-5.6 7.6,-15.6 2,-22.3 -5.7,-6.7 -15.7,-7.6 -22.4,-2 z"
             id="path66"
             style="fill:#ff0000" />
          <path
             inkscape:connector-curvature="0"
             d="m 350.6,522.1 c 0,0 0,0 0,0 13.2,0 23.8,-10.6 23.9,-23.7 0,-13.1 -10.6,-23.8 -23.7,-23.9 L 33.9,473.4 c 0,0 0,0 -0.1,0 -13.1,0 -23.7,10.6 -23.8,23.7 0,13.1 10.6,23.8 23.7,23.9 l 316.9,1.1 z"
             id="path68"
             style="fill:#ff0000" />
        </g>
      </g>
      <g
         id="g70"
         style="fill:#ff0000" />
      <g
         id="g72"
         style="fill:#ff0000" />
      <g
         id="g74"
         style="fill:#ff0000" />
      <g
         id="g76"
         style="fill:#ff0000" />
      <g
         id="g78"
         style="fill:#ff0000" />
      <g
         id="g80"
         style="fill:#ff0000" />
      <g
         id="g82"
         style="fill:#ff0000" />
      <g
         id="g84"
         style="fill:#ff0000" />
      <g
         id="g86"
         style="fill:#ff0000" />
      <g
         id="g88"
         style="fill:#ff0000" />
      <g
         id="g90"
         style="fill:#ff0000" />
      <g
         id="g92"
         style="fill:#ff0000" />
      <g
         id="g94"
         style="fill:#ff0000" />
      <g
         id="g96"
         style="fill:#ff0000" />
      <g
         id="g98"
         style="fill:#ff0000" />
    </g>
  </g>
</svg>
